<mxfile host="app.diagrams.net" modified="2024-01-15T12:30:33.718Z" agent="Mozilla/5.0 (Macintosh; Intel Mac OS X 10_15_7) AppleWebKit/537.36 (KHTML, like Gecko) Chrome/120.0.0.0 Safari/537.36 Edg/120.0.0.0" etag="fbgDTybj5gTPN34iRVZr" version="22.1.18" type="github">
  <diagram name="第 1 页" id="Lr_a4t1G9RaFQeTxE_U1">
    <mxGraphModel dx="1018" dy="609" grid="1" gridSize="10" guides="1" tooltips="1" connect="1" arrows="1" fold="1" page="1" pageScale="1" pageWidth="827" pageHeight="1169" math="0" shadow="0">
      <root>
        <mxCell id="0" />
        <mxCell id="1" parent="0" />
        <mxCell id="cnXNq07fpTVKBHnBqtde-5" value="ARG1" style="rounded=0;orthogonalLoop=1;jettySize=auto;html=1;exitX=1;exitY=1;exitDx=0;exitDy=0;entryX=0;entryY=0.5;entryDx=0;entryDy=0;fontFamily=Times New Roman;fontSize=20;" edge="1" parent="1" source="cnXNq07fpTVKBHnBqtde-1" target="cnXNq07fpTVKBHnBqtde-2">
          <mxGeometry x="-0.0039" relative="1" as="geometry">
            <mxPoint as="offset" />
          </mxGeometry>
        </mxCell>
        <mxCell id="cnXNq07fpTVKBHnBqtde-8" style="rounded=0;orthogonalLoop=1;jettySize=auto;html=1;exitX=1;exitY=0;exitDx=0;exitDy=0;entryX=0;entryY=0.5;entryDx=0;entryDy=0;fontSize=20;" edge="1" parent="1" source="cnXNq07fpTVKBHnBqtde-1" target="cnXNq07fpTVKBHnBqtde-4">
          <mxGeometry relative="1" as="geometry" />
        </mxCell>
        <mxCell id="cnXNq07fpTVKBHnBqtde-11" value="ARG0" style="edgeLabel;html=1;align=center;verticalAlign=middle;resizable=0;points=[];fontFamily=Times New Roman;fontSize=20;" vertex="1" connectable="0" parent="cnXNq07fpTVKBHnBqtde-8">
          <mxGeometry x="0.0285" y="1" relative="1" as="geometry">
            <mxPoint as="offset" />
          </mxGeometry>
        </mxCell>
        <mxCell id="cnXNq07fpTVKBHnBqtde-1" value="希望" style="ellipse;whiteSpace=wrap;html=1;fontFamily=宋体-简;fontSize=20;" vertex="1" parent="1">
          <mxGeometry x="150" y="210" width="120" height="80" as="geometry" />
        </mxCell>
        <mxCell id="cnXNq07fpTVKBHnBqtde-9" style="rounded=0;orthogonalLoop=1;jettySize=auto;html=1;exitX=1;exitY=0;exitDx=0;exitDy=0;entryX=0;entryY=1;entryDx=0;entryDy=0;fontSize=20;" edge="1" parent="1" source="cnXNq07fpTVKBHnBqtde-2" target="cnXNq07fpTVKBHnBqtde-4">
          <mxGeometry relative="1" as="geometry">
            <mxPoint x="469.99640687119273" y="300.8557287525381" as="sourcePoint" />
            <mxPoint x="578.57" y="199.14" as="targetPoint" />
          </mxGeometry>
        </mxCell>
        <mxCell id="cnXNq07fpTVKBHnBqtde-13" value="ARG1" style="edgeLabel;html=1;align=center;verticalAlign=middle;resizable=0;points=[];fontFamily=Times New Roman;fontSize=20;" vertex="1" connectable="0" parent="cnXNq07fpTVKBHnBqtde-9">
          <mxGeometry x="-0.069" y="-2" relative="1" as="geometry">
            <mxPoint as="offset" />
          </mxGeometry>
        </mxCell>
        <mxCell id="cnXNq07fpTVKBHnBqtde-10" style="rounded=0;orthogonalLoop=1;jettySize=auto;html=1;exitX=1;exitY=1;exitDx=0;exitDy=0;entryX=0;entryY=0.5;entryDx=0;entryDy=0;fontSize=20;" edge="1" parent="1" source="cnXNq07fpTVKBHnBqtde-2" target="cnXNq07fpTVKBHnBqtde-3">
          <mxGeometry relative="1" as="geometry" />
        </mxCell>
        <mxCell id="cnXNq07fpTVKBHnBqtde-12" value="ARG0" style="edgeLabel;html=1;align=center;verticalAlign=middle;resizable=0;points=[];fontFamily=Times New Roman;fontSize=20;" vertex="1" connectable="0" parent="cnXNq07fpTVKBHnBqtde-10">
          <mxGeometry x="0.1308" y="-1" relative="1" as="geometry">
            <mxPoint as="offset" />
          </mxGeometry>
        </mxCell>
        <mxCell id="cnXNq07fpTVKBHnBqtde-2" value="相信" style="ellipse;whiteSpace=wrap;html=1;fontSize=20;" vertex="1" parent="1">
          <mxGeometry x="354" y="270" width="120" height="80" as="geometry" />
        </mxCell>
        <mxCell id="cnXNq07fpTVKBHnBqtde-3" value="女孩" style="ellipse;whiteSpace=wrap;html=1;fontFamily=宋体-简;fontSize=20;" vertex="1" parent="1">
          <mxGeometry x="565" y="270" width="120" height="80" as="geometry" />
        </mxCell>
        <mxCell id="cnXNq07fpTVKBHnBqtde-4" value="男孩" style="ellipse;whiteSpace=wrap;html=1;fontFamily=宋体-简;fontSize=20;" vertex="1" parent="1">
          <mxGeometry x="565" y="140" width="120" height="80" as="geometry" />
        </mxCell>
      </root>
    </mxGraphModel>
  </diagram>
</mxfile>
